ISO-10303-21;
HEADER;
/* Generated by software containing ST-Developer
 * from STEP Tools, Inc. (www.steptools.com) 
 */
/* OPTION: using custom renumber hook */

FILE_DESCRIPTION(
/* description */ ('STEP AP242 Edition 2',
'CAx-IF Rec.Pracs.---Representation and Presentation of Product Manufa
cturing Information (PMI)---4.0---2014-10-13',
'CAx-IF Rec.Pracs.---3D Tessellated Geometry---0.4---2014-09-14','2;1',
'CAx-IF Rec.Pracs.---User Defined Attributes---1.5---2016-08-15'),
/* implementation_level */ '2;1');

FILE_NAME(
/* name */ 'Case - Part 2',
/* time_stamp */ '2026-09-15T11:27:45Z',
/* author */ (''),
/* organization */ (''),
/* preprocessor_version */ 'ST-DEVELOPER v20',
/* originating_system */ 'ONSHAPE BY PTC INC, 1.220',
/* authorisation */ '  ');

FILE_SCHEMA (('AP242_MANAGED_MODEL_BASED_3D_ENGINEERING_MIM_LF { 1 0 10303 442 3 1 4 }'));
ENDSEC;

DATA;
#10=SHAPE_REPRESENTATION_RELATIONSHIP('','',#251,#11);
#11=ADVANCED_BREP_SHAPE_REPRESENTATION('',(#249),#421);
#12=CYLINDRICAL_SURFACE('',#266,0.003);
#13=CYLINDRICAL_SURFACE('',#268,0.003);
#14=CYLINDRICAL_SURFACE('',#274,0.003);
#15=CYLINDRICAL_SURFACE('',#276,0.003);
#16=SPHERICAL_SURFACE('',#263,0.003);
#17=SPHERICAL_SURFACE('',#270,0.003);
#18=SPHERICAL_SURFACE('',#272,0.003);
#19=SPHERICAL_SURFACE('',#278,0.003);
#20=CIRCLE('',#254,0.003);
#21=CIRCLE('',#255,0.003);
#22=CIRCLE('',#256,0.003);
#23=CIRCLE('',#257,0.003);
#24=CIRCLE('',#264,0.003);
#25=CIRCLE('',#265,0.003);
#26=CIRCLE('',#267,0.003);
#27=CIRCLE('',#269,0.003);
#28=CIRCLE('',#271,0.003);
#29=CIRCLE('',#273,0.003);
#30=CIRCLE('',#275,0.003);
#31=CIRCLE('',#277,0.003);
#32=ORIENTED_EDGE('',*,*,#96,.T.);
#33=ORIENTED_EDGE('',*,*,#97,.T.);
#34=ORIENTED_EDGE('',*,*,#98,.F.);
#35=ORIENTED_EDGE('',*,*,#99,.F.);
#36=ORIENTED_EDGE('',*,*,#100,.T.);
#37=ORIENTED_EDGE('',*,*,#101,.T.);
#38=ORIENTED_EDGE('',*,*,#102,.F.);
#39=ORIENTED_EDGE('',*,*,#103,.T.);
#40=ORIENTED_EDGE('',*,*,#104,.F.);
#41=ORIENTED_EDGE('',*,*,#105,.T.);
#42=ORIENTED_EDGE('',*,*,#106,.T.);
#43=ORIENTED_EDGE('',*,*,#107,.T.);
#44=ORIENTED_EDGE('',*,*,#108,.T.);
#45=ORIENTED_EDGE('',*,*,#109,.T.);
#46=ORIENTED_EDGE('',*,*,#110,.T.);
#47=ORIENTED_EDGE('',*,*,#111,.T.);
#48=ORIENTED_EDGE('',*,*,#112,.F.);
#49=ORIENTED_EDGE('',*,*,#113,.F.);
#50=ORIENTED_EDGE('',*,*,#114,.T.);
#51=ORIENTED_EDGE('',*,*,#115,.T.);
#52=ORIENTED_EDGE('',*,*,#116,.F.);
#53=ORIENTED_EDGE('',*,*,#112,.T.);
#54=ORIENTED_EDGE('',*,*,#117,.T.);
#55=ORIENTED_EDGE('',*,*,#97,.F.);
#56=ORIENTED_EDGE('',*,*,#98,.T.);
#57=ORIENTED_EDGE('',*,*,#117,.F.);
#58=ORIENTED_EDGE('',*,*,#115,.F.);
#59=ORIENTED_EDGE('',*,*,#118,.T.);
#60=ORIENTED_EDGE('',*,*,#99,.T.);
#61=ORIENTED_EDGE('',*,*,#118,.F.);
#62=ORIENTED_EDGE('',*,*,#114,.F.);
#63=ORIENTED_EDGE('',*,*,#119,.T.);
#64=ORIENTED_EDGE('',*,*,#119,.F.);
#65=ORIENTED_EDGE('',*,*,#113,.T.);
#66=ORIENTED_EDGE('',*,*,#116,.T.);
#67=ORIENTED_EDGE('',*,*,#96,.F.);
#68=ORIENTED_EDGE('',*,*,#120,.F.);
#69=ORIENTED_EDGE('',*,*,#105,.F.);
#70=ORIENTED_EDGE('',*,*,#121,.F.);
#71=ORIENTED_EDGE('',*,*,#121,.T.);
#72=ORIENTED_EDGE('',*,*,#104,.T.);
#73=ORIENTED_EDGE('',*,*,#122,.F.);
#74=ORIENTED_EDGE('',*,*,#111,.F.);
#75=ORIENTED_EDGE('',*,*,#120,.T.);
#76=ORIENTED_EDGE('',*,*,#110,.F.);
#77=ORIENTED_EDGE('',*,*,#123,.F.);
#78=ORIENTED_EDGE('',*,*,#106,.F.);
#79=ORIENTED_EDGE('',*,*,#122,.T.);
#80=ORIENTED_EDGE('',*,*,#103,.F.);
#81=ORIENTED_EDGE('',*,*,#124,.F.);
#82=ORIENTED_EDGE('',*,*,#107,.F.);
#83=ORIENTED_EDGE('',*,*,#123,.T.);
#84=ORIENTED_EDGE('',*,*,#125,.F.);
#85=ORIENTED_EDGE('',*,*,#124,.T.);
#86=ORIENTED_EDGE('',*,*,#102,.T.);
#87=ORIENTED_EDGE('',*,*,#126,.F.);
#88=ORIENTED_EDGE('',*,*,#108,.F.);
#89=ORIENTED_EDGE('',*,*,#125,.T.);
#90=ORIENTED_EDGE('',*,*,#109,.F.);
#91=ORIENTED_EDGE('',*,*,#127,.F.);
#92=ORIENTED_EDGE('',*,*,#100,.F.);
#93=ORIENTED_EDGE('',*,*,#127,.T.);
#94=ORIENTED_EDGE('',*,*,#126,.T.);
#95=ORIENTED_EDGE('',*,*,#101,.F.);
#96=EDGE_CURVE('',#128,#129,#148,.T.);
#97=EDGE_CURVE('',#129,#130,#149,.T.);
#98=EDGE_CURVE('',#131,#130,#150,.T.);
#99=EDGE_CURVE('',#128,#131,#151,.T.);
#100=EDGE_CURVE('',#132,#133,#152,.T.);
#101=EDGE_CURVE('',#133,#134,#20,.F.);
#102=EDGE_CURVE('',#135,#134,#153,.T.);
#103=EDGE_CURVE('',#135,#136,#21,.F.);
#104=EDGE_CURVE('',#137,#136,#154,.T.);
#105=EDGE_CURVE('',#137,#138,#22,.F.);
#106=EDGE_CURVE('',#138,#139,#155,.T.);
#107=EDGE_CURVE('',#139,#132,#23,.F.);
#108=EDGE_CURVE('',#140,#141,#156,.T.);
#109=EDGE_CURVE('',#141,#142,#157,.F.);
#110=EDGE_CURVE('',#142,#143,#158,.F.);
#111=EDGE_CURVE('',#143,#140,#159,.T.);
#112=EDGE_CURVE('',#144,#145,#160,.T.);
#113=EDGE_CURVE('',#146,#144,#161,.T.);
#114=EDGE_CURVE('',#146,#147,#162,.T.);
#115=EDGE_CURVE('',#147,#145,#163,.T.);
#116=EDGE_CURVE('',#144,#129,#164,.T.);
#117=EDGE_CURVE('',#145,#130,#165,.T.);
#118=EDGE_CURVE('',#147,#131,#166,.T.);
#119=EDGE_CURVE('',#146,#128,#167,.T.);
#120=EDGE_CURVE('',#138,#143,#24,.F.);
#121=EDGE_CURVE('',#143,#137,#25,.F.);
#122=EDGE_CURVE('',#140,#136,#26,.T.);
#123=EDGE_CURVE('',#139,#142,#27,.T.);
#124=EDGE_CURVE('',#140,#135,#28,.F.);
#125=EDGE_CURVE('',#132,#142,#29,.F.);
#126=EDGE_CURVE('',#141,#134,#30,.T.);
#127=EDGE_CURVE('',#133,#141,#31,.T.);
#128=VERTEX_POINT('',#356);
#129=VERTEX_POINT('',#357);
#130=VERTEX_POINT('',#359);
#131=VERTEX_POINT('',#361);
#132=VERTEX_POINT('',#364);
#133=VERTEX_POINT('',#365);
#134=VERTEX_POINT('',#367);
#135=VERTEX_POINT('',#369);
#136=VERTEX_POINT('',#371);
#137=VERTEX_POINT('',#373);
#138=VERTEX_POINT('',#375);
#139=VERTEX_POINT('',#377);
#140=VERTEX_POINT('',#381);
#141=VERTEX_POINT('',#382);
#142=VERTEX_POINT('',#384);
#143=VERTEX_POINT('',#386);
#144=VERTEX_POINT('',#389);
#145=VERTEX_POINT('',#390);
#146=VERTEX_POINT('',#392);
#147=VERTEX_POINT('',#394);
#148=LINE('',#355,#168);
#149=LINE('',#358,#169);
#150=LINE('',#360,#170);
#151=LINE('',#362,#171);
#152=LINE('',#363,#172);
#153=LINE('',#368,#173);
#154=LINE('',#372,#174);
#155=LINE('',#376,#175);
#156=LINE('',#380,#176);
#157=LINE('',#383,#177);
#158=LINE('',#385,#178);
#159=LINE('',#387,#179);
#160=LINE('',#388,#180);
#161=LINE('',#391,#181);
#162=LINE('',#393,#182);
#163=LINE('',#395,#183);
#164=LINE('',#397,#184);
#165=LINE('',#398,#185);
#166=LINE('',#400,#186);
#167=LINE('',#402,#187);
#168=VECTOR('',#283,1.);
#169=VECTOR('',#284,1.);
#170=VECTOR('',#285,1.);
#171=VECTOR('',#286,1.);
#172=VECTOR('',#287,1.);
#173=VECTOR('',#290,1.);
#174=VECTOR('',#293,1.);
#175=VECTOR('',#296,1.);
#176=VECTOR('',#301,1.);
#177=VECTOR('',#302,1.);
#178=VECTOR('',#303,1.);
#179=VECTOR('',#304,1.);
#180=VECTOR('',#305,1.);
#181=VECTOR('',#306,1.);
#182=VECTOR('',#307,1.);
#183=VECTOR('',#308,1.);
#184=VECTOR('',#311,1.);
#185=VECTOR('',#312,1.);
#186=VECTOR('',#315,1.);
#187=VECTOR('',#318,1.);
#188=EDGE_LOOP('',(#32,#33,#34,#35));
#189=EDGE_LOOP('',(#36,#37,#38,#39,#40,#41,#42,#43));
#190=EDGE_LOOP('',(#44,#45,#46,#47));
#191=EDGE_LOOP('',(#48,#49,#50,#51));
#192=EDGE_LOOP('',(#52,#53,#54,#55));
#193=EDGE_LOOP('',(#56,#57,#58,#59));
#194=EDGE_LOOP('',(#60,#61,#62,#63));
#195=EDGE_LOOP('',(#64,#65,#66,#67));
#196=EDGE_LOOP('',(#68,#69,#70));
#197=EDGE_LOOP('',(#71,#72,#73,#74));
#198=EDGE_LOOP('',(#75,#76,#77,#78));
#199=EDGE_LOOP('',(#79,#80,#81));
#200=EDGE_LOOP('',(#82,#83,#84));
#201=EDGE_LOOP('',(#85,#86,#87,#88));
#202=EDGE_LOOP('',(#89,#90,#91,#92));
#203=EDGE_LOOP('',(#93,#94,#95));
#204=FACE_BOUND('',#188,.T.);
#205=FACE_BOUND('',#189,.T.);
#206=FACE_BOUND('',#190,.T.);
#207=FACE_BOUND('',#191,.T.);
#208=FACE_BOUND('',#192,.T.);
#209=FACE_BOUND('',#193,.T.);
#210=FACE_BOUND('',#194,.T.);
#211=FACE_BOUND('',#195,.T.);
#212=FACE_BOUND('',#196,.T.);
#213=FACE_BOUND('',#197,.T.);
#214=FACE_BOUND('',#198,.T.);
#215=FACE_BOUND('',#199,.T.);
#216=FACE_BOUND('',#200,.T.);
#217=FACE_BOUND('',#201,.T.);
#218=FACE_BOUND('',#202,.T.);
#219=FACE_BOUND('',#203,.T.);
#220=PLANE('',#253);
#221=PLANE('',#258);
#222=PLANE('',#259);
#223=PLANE('',#260);
#224=PLANE('',#261);
#225=PLANE('',#262);
#226=ADVANCED_FACE('',(#204,#205),#220,.F.);
#227=ADVANCED_FACE('',(#206,#207),#221,.T.);
#228=ADVANCED_FACE('',(#208),#222,.F.);
#229=ADVANCED_FACE('',(#209),#223,.T.);
#230=ADVANCED_FACE('',(#210),#224,.T.);
#231=ADVANCED_FACE('',(#211),#225,.F.);
#232=ADVANCED_FACE('',(#212),#16,.T.);
#233=ADVANCED_FACE('',(#213),#12,.T.);
#234=ADVANCED_FACE('',(#214),#13,.T.);
#235=ADVANCED_FACE('',(#215),#17,.T.);
#236=ADVANCED_FACE('',(#216),#18,.T.);
#237=ADVANCED_FACE('',(#217),#14,.T.);
#238=ADVANCED_FACE('',(#218),#15,.T.);
#239=ADVANCED_FACE('',(#219),#19,.T.);
#240=CLOSED_SHELL('',(#226,#227,#228,#229,#230,#231,#232,#233,#234,#235,
#236,#237,#238,#239));
#241=STYLED_ITEM('',(#242),#249);
#242=PRESENTATION_STYLE_ASSIGNMENT((#243));
#243=SURFACE_STYLE_USAGE(.BOTH.,#244);
#244=SURFACE_SIDE_STYLE('',(#245));
#245=SURFACE_STYLE_FILL_AREA(#246);
#246=FILL_AREA_STYLE('',(#247));
#247=FILL_AREA_STYLE_COLOUR('',#248);
#248=COLOUR_RGB('',0.231372549019608,0.380392156862745,0.705882352941177);
#249=MANIFOLD_SOLID_BREP('Part 2',#240);
#250=SHAPE_DEFINITION_REPRESENTATION(#426,#251);
#251=SHAPE_REPRESENTATION('Part 2',(#252),#421);
#252=AXIS2_PLACEMENT_3D('',#353,#279,#280);
#253=AXIS2_PLACEMENT_3D('',#354,#281,#282);
#254=AXIS2_PLACEMENT_3D('',#366,#288,#289);
#255=AXIS2_PLACEMENT_3D('',#370,#291,#292);
#256=AXIS2_PLACEMENT_3D('',#374,#294,#295);
#257=AXIS2_PLACEMENT_3D('',#378,#297,#298);
#258=AXIS2_PLACEMENT_3D('',#379,#299,#300);
#259=AXIS2_PLACEMENT_3D('',#396,#309,#310);
#260=AXIS2_PLACEMENT_3D('',#399,#313,#314);
#261=AXIS2_PLACEMENT_3D('',#401,#316,#317);
#262=AXIS2_PLACEMENT_3D('',#403,#319,#320);
#263=AXIS2_PLACEMENT_3D('',#404,#321,#322);
#264=AXIS2_PLACEMENT_3D('',#405,#323,#324);
#265=AXIS2_PLACEMENT_3D('',#406,#325,#326);
#266=AXIS2_PLACEMENT_3D('',#407,#327,#328);
#267=AXIS2_PLACEMENT_3D('',#408,#329,#330);
#268=AXIS2_PLACEMENT_3D('',#409,#331,#332);
#269=AXIS2_PLACEMENT_3D('',#410,#333,#334);
#270=AXIS2_PLACEMENT_3D('',#411,#335,#336);
#271=AXIS2_PLACEMENT_3D('',#412,#337,#338);
#272=AXIS2_PLACEMENT_3D('',#413,#339,#340);
#273=AXIS2_PLACEMENT_3D('',#414,#341,#342);
#274=AXIS2_PLACEMENT_3D('',#415,#343,#344);
#275=AXIS2_PLACEMENT_3D('',#416,#345,#346);
#276=AXIS2_PLACEMENT_3D('',#417,#347,#348);
#277=AXIS2_PLACEMENT_3D('',#418,#349,#350);
#278=AXIS2_PLACEMENT_3D('',#419,#351,#352);
#279=DIRECTION('',(0.,0.,1.));
#280=DIRECTION('',(1.,0.,0.));
#281=DIRECTION('',(-1.52503162723235E-16,0.,1.));
#282=DIRECTION('',(1.,0.,1.52503162723235E-16));
#283=DIRECTION('',(2.22488522378029E-16,-1.,3.39302033322688E-32));
#284=DIRECTION('',(1.,8.60768719662733E-17,1.52503162723235E-16));
#285=DIRECTION('',(0.,-1.,0.));
#286=DIRECTION('',(1.,1.23735503451518E-16,1.52503162723235E-16));
#287=DIRECTION('',(1.,0.,1.52503162723235E-16));
#288=DIRECTION('',(-1.52503162723235E-16,0.,1.));
#289=DIRECTION('',(1.,0.,1.52503162723235E-16));
#290=DIRECTION('',(0.,1.,0.));
#291=DIRECTION('',(-1.52503162723235E-16,0.,1.));
#292=DIRECTION('',(1.,0.,1.52503162723235E-16));
#293=DIRECTION('',(1.,0.,1.52503162723235E-16));
#294=DIRECTION('',(-1.52503162723235E-16,0.,1.));
#295=DIRECTION('',(1.,0.,1.52503162723235E-16));
#296=DIRECTION('',(0.,1.,0.));
#297=DIRECTION('',(-1.52503162723235E-16,0.,1.));
#298=DIRECTION('',(1.,0.,1.52503162723235E-16));
#299=DIRECTION('',(-1.52503162723235E-16,0.,1.));
#300=DIRECTION('',(1.,0.,1.52503162723235E-16));
#301=DIRECTION('',(0.,1.,0.));
#302=DIRECTION('',(1.,0.,1.52503162723235E-16));
#303=DIRECTION('',(0.,1.,0.));
#304=DIRECTION('',(1.,0.,1.52503162723235E-16));
#305=DIRECTION('',(1.,8.60768719662733E-17,1.52503162723235E-16));
#306=DIRECTION('',(2.22488522378029E-16,-1.,3.39302033322688E-32));
#307=DIRECTION('',(1.,1.23735503451518E-16,1.52503162723235E-16));
#308=DIRECTION('',(0.,-1.,0.));
#309=DIRECTION('',(8.60768719662733E-17,-1.,0.));
#310=DIRECTION('',(1.,8.60768719662733E-17,0.));
#311=DIRECTION('',(0.,0.,-1.));
#312=DIRECTION('',(0.,0.,-1.));
#313=DIRECTION('',(-1.,0.,0.));
#314=DIRECTION('',(0.,0.,1.));
#315=DIRECTION('',(0.,0.,-1.));
#316=DIRECTION('',(1.23735503451518E-16,-1.,0.));
#317=DIRECTION('',(1.,1.23735503451518E-16,0.));
#318=DIRECTION('',(0.,0.,-1.));
#319=DIRECTION('',(-1.,-2.22488522378029E-16,0.));
#320=DIRECTION('',(2.22488522378029E-16,-1.,0.));
#321=DIRECTION('',(0.,-1.,0.));
#322=DIRECTION('',(0.,0.,-1.));
#323=DIRECTION('',(0.,-1.,0.));
#324=DIRECTION('',(0.,0.,-1.));
#325=DIRECTION('',(-1.,0.,0.));
#326=DIRECTION('',(0.,0.,1.));
#327=DIRECTION('',(1.,0.,1.52503162723235E-16));
#328=DIRECTION('',(1.52503162723235E-16,0.,-1.));
#329=DIRECTION('',(1.,0.,0.));
#330=DIRECTION('',(0.,0.,-1.));
#331=DIRECTION('',(0.,1.,0.));
#332=DIRECTION('',(0.,0.,1.));
#333=DIRECTION('',(0.,1.,0.));
#334=DIRECTION('',(0.,0.,1.));
#335=DIRECTION('',(0.,-1.,0.));
#336=DIRECTION('',(0.,0.,-1.));
#337=DIRECTION('',(0.,-1.,0.));
#338=DIRECTION('',(0.,0.,-1.));
#339=DIRECTION('',(-1.,0.,0.));
#340=DIRECTION('',(0.,0.,1.));
#341=DIRECTION('',(-1.,-1.15648231731787E-15,0.));
#342=DIRECTION('',(1.15648231731787E-15,-1.,0.));
#343=DIRECTION('',(0.,-1.,0.));
#344=DIRECTION('',(0.,0.,-1.));
#345=DIRECTION('',(0.,1.,0.));
#346=DIRECTION('',(0.,0.,1.));
#347=DIRECTION('',(-1.,0.,-1.52503162723235E-16));
#348=DIRECTION('',(-1.52503162723235E-16,0.,1.));
#349=DIRECTION('',(1.,0.,0.));
#350=DIRECTION('',(0.,0.,-1.));
#351=DIRECTION('',(0.,0.,1.));
#352=DIRECTION('',(1.,0.,0.));
#353=CARTESIAN_POINT('',(0.,0.,0.));
#354=CARTESIAN_POINT('',(0.0309813804924509,-0.03873,0.03721557302773));
#355=CARTESIAN_POINT('',(-0.00934431701898556,-0.03873,0.03721557302773));
#356=CARTESIAN_POINT('',(-0.00934431701898557,0.00180665118386967,0.03721557302773));
#357=CARTESIAN_POINT('',(-0.00934431701898556,-0.0293809976428747,0.03721557302773));
#358=CARTESIAN_POINT('',(0.0309813804924509,-0.0293809976428747,0.03721557302773));
#359=CARTESIAN_POINT('',(0.0712684392929077,-0.0293809976428747,0.03721557302773));
#360=CARTESIAN_POINT('',(0.0712684392929077,-0.03873,0.03721557302773));
#361=CARTESIAN_POINT('',(0.0712684392929077,0.00180665118386969,0.03721557302773));
#362=CARTESIAN_POINT('',(0.0309813804924509,0.00180665118386968,0.03721557302773));
#363=CARTESIAN_POINT('',(0.0309813804924509,0.02013,0.03721557302773));
#364=CARTESIAN_POINT('',(-0.0115186195075492,0.02013,0.03721557302773));
#365=CARTESIAN_POINT('',(0.0734813804924508,0.02013,0.03721557302773));
#366=CARTESIAN_POINT('',(0.0734813804924508,0.01713,0.03721557302773));
#367=CARTESIAN_POINT('',(0.0764813804924508,0.01713,0.03721557302773));
#368=CARTESIAN_POINT('',(0.0764813804924508,-0.03873,0.03721557302773));
#369=CARTESIAN_POINT('',(0.0764813804924508,-0.03573,0.03721557302773));
#370=CARTESIAN_POINT('',(0.0734813804924508,-0.03573,0.03721557302773));
#371=CARTESIAN_POINT('',(0.0734813804924508,-0.03873,0.03721557302773));
#372=CARTESIAN_POINT('',(0.0309813804924509,-0.03873,0.03721557302773));
#373=CARTESIAN_POINT('',(-0.0115186195075492,-0.03873,0.03721557302773));
#374=CARTESIAN_POINT('',(-0.0115186195075492,-0.03573,0.03721557302773));
#375=CARTESIAN_POINT('',(-0.0145186195075492,-0.03573,0.03721557302773));
#376=CARTESIAN_POINT('',(-0.0145186195075492,-0.03873,0.03721557302773));
#377=CARTESIAN_POINT('',(-0.0145186195075492,0.01713,0.03721557302773));
#378=CARTESIAN_POINT('',(-0.0115186195075492,0.01713,0.03721557302773));
#379=CARTESIAN_POINT('',(0.0309813804924509,-0.03873,0.04021557302773));
#380=CARTESIAN_POINT('',(0.0734813804924508,0.02013,0.04021557302773));
#381=CARTESIAN_POINT('',(0.0734813804924508,-0.03573,0.04021557302773));
#382=CARTESIAN_POINT('',(0.0734813804924508,0.01713,0.04021557302773));
#383=CARTESIAN_POINT('',(-0.0145186195075492,0.01713,0.04021557302773));
#384=CARTESIAN_POINT('',(-0.0115186195075492,0.01713,0.04021557302773));
#385=CARTESIAN_POINT('',(-0.0115186195075492,-0.03873,0.04021557302773));
#386=CARTESIAN_POINT('',(-0.0115186195075492,-0.03573,0.04021557302773));
#387=CARTESIAN_POINT('',(0.0309813804924509,-0.03573,0.04021557302773));
#388=CARTESIAN_POINT('',(0.0309813804924509,-0.0293809976428747,0.04021557302773));
#389=CARTESIAN_POINT('',(-0.00934431701898556,-0.0293809976428747,0.04021557302773));
#390=CARTESIAN_POINT('',(0.0712684392929077,-0.0293809976428747,0.04021557302773));
#391=CARTESIAN_POINT('',(-0.00934431701898556,-0.03873,0.04021557302773));
#392=CARTESIAN_POINT('',(-0.00934431701898557,0.00180665118386967,0.04021557302773));
#393=CARTESIAN_POINT('',(0.0309813804924509,0.00180665118386968,0.04021557302773));
#394=CARTESIAN_POINT('',(0.0712684392929077,0.00180665118386969,0.04021557302773));
#395=CARTESIAN_POINT('',(0.0712684392929077,-0.03873,0.04021557302773));
#396=CARTESIAN_POINT('',(0.0309620611369611,-0.0293809976428747,0.0591));
#397=CARTESIAN_POINT('',(-0.00934431701898556,-0.0293809976428747,0.0591));
#398=CARTESIAN_POINT('',(0.0712684392929077,-0.0293809976428747,0.0591));
#399=CARTESIAN_POINT('',(0.0712684392929077,-0.0137871732295025,0.0591));
#400=CARTESIAN_POINT('',(0.0712684392929077,0.00180665118386969,0.0591));
#401=CARTESIAN_POINT('',(0.0309620611369611,0.00180665118386968,0.0591));
#402=CARTESIAN_POINT('',(-0.00934431701898557,0.00180665118386967,0.0591));
#403=CARTESIAN_POINT('',(-0.00934431701898556,-0.0137871732295025,0.0591));
#404=CARTESIAN_POINT('',(-0.0115186195075492,-0.03573,0.03721557302773));
#405=CARTESIAN_POINT('',(-0.0115186195075492,-0.03573,0.03721557302773));
#406=CARTESIAN_POINT('',(-0.0115186195075492,-0.03573,0.03721557302773));
#407=CARTESIAN_POINT('',(0.0309813804924509,-0.03573,0.03721557302773));
#408=CARTESIAN_POINT('',(0.0734813804924508,-0.03573,0.03721557302773));
#409=CARTESIAN_POINT('',(-0.0115186195075492,-0.03873,0.03721557302773));
#410=CARTESIAN_POINT('',(-0.0115186195075492,0.01713,0.03721557302773));
#411=CARTESIAN_POINT('',(0.0734813804924508,-0.03573,0.03721557302773));
#412=CARTESIAN_POINT('',(0.0734813804924508,-0.03573,0.03721557302773));
#413=CARTESIAN_POINT('',(-0.0115186195075492,0.01713,0.03721557302773));
#414=CARTESIAN_POINT('',(-0.0115186195075492,0.01713,0.03721557302773));
#415=CARTESIAN_POINT('',(0.0734813804924508,-0.03873,0.03721557302773));
#416=CARTESIAN_POINT('',(0.0734813804924508,0.01713,0.03721557302773));
#417=CARTESIAN_POINT('',(0.0309813804924508,0.01713,0.03721557302773));
#418=CARTESIAN_POINT('',(0.0734813804924508,0.01713,0.03721557302773));
#419=CARTESIAN_POINT('',(0.0734813804924508,0.01713,0.03721557302773));
#420=MECHANICAL_DESIGN_GEOMETRIC_PRESENTATION_REPRESENTATION('',(#241),
#421);
#421=(
GEOMETRIC_REPRESENTATION_CONTEXT(3)
GLOBAL_UNCERTAINTY_ASSIGNED_CONTEXT((#422))
GLOBAL_UNIT_ASSIGNED_CONTEXT((#425,#424,#423))
REPRESENTATION_CONTEXT('Part 2','TOP_LEVEL_ASSEMBLY_PART')
);
#422=UNCERTAINTY_MEASURE_WITH_UNIT(LENGTH_MEASURE(1.E-8),#425,
'DISTANCE_ACCURACY_VALUE','Maximum Tolerance applied to model');
#423=(
NAMED_UNIT(*)
SI_UNIT($,.STERADIAN.)
SOLID_ANGLE_UNIT()
);
#424=(
NAMED_UNIT(*)
PLANE_ANGLE_UNIT()
SI_UNIT($,.RADIAN.)
);
#425=(
LENGTH_UNIT()
NAMED_UNIT(*)
SI_UNIT($,.METRE.)
);
#426=PRODUCT_DEFINITION_SHAPE('','',#427);
#427=PRODUCT_DEFINITION('','',#429,#428);
#428=PRODUCT_DEFINITION_CONTEXT('',#435,'design');
#429=PRODUCT_DEFINITION_FORMATION_WITH_SPECIFIED_SOURCE('','',#431,
 .NOT_KNOWN.);
#430=PRODUCT_RELATED_PRODUCT_CATEGORY('','',(#431));
#431=PRODUCT('Part 2','Part 2','Part 2',(#433));
#432=PRODUCT_CATEGORY('','');
#433=PRODUCT_CONTEXT('',#435,'mechanical');
#434=APPLICATION_PROTOCOL_DEFINITION('international standard',
'ap242_managed_model_based_3d_engineering',2020,#435);
#435=APPLICATION_CONTEXT('managed model based 3d engineering');
ENDSEC;
END-ISO-10303-21;
